<svg width="17" height="12" fill="none" xmlns="http://www.w3.org/2000/svg"><g clip-path="url(#a)"><rect width="17" height="12" rx="1" fill="#fff"/><path fill-rule="evenodd" clip-rule="evenodd" d="M0 0h7.286v5.6H0V0Z" fill="#1A47B8"/><path fill-rule="evenodd" clip-rule="evenodd" d="M7.286 0v.8H17V0H7.286Zm0 1.6v.8H17v-.8H7.286Zm0 1.6V4H17v-.8H7.286Zm0 1.6v.8H17v-.8H7.286ZM0 6.4v.8h17v-.8H0ZM0 8v.8h17V8H0Zm0 1.6v.8h17v-.8H0Zm0 1.6v.8h17v-.8H0Z" fill="#F93939"/><path fill-rule="evenodd" clip-rule="evenodd" d="M.81.8v.8h.809V.8h-.81Zm1.619 0v.8h.81V.8h-.81Zm1.619 0v.8h.81V.8h-.81Zm1.619 0v.8h.81V.8h-.81Zm-.81.8v.8h.81v-.8h-.81Zm-1.619 0v.8h.81v-.8h-.81Zm-1.619 0v.8h.81v-.8h-.81Zm-.81.8v.8h.81v-.8h-.81Zm1.62 0v.8h.81v-.8h-.81Zm1.619 0v.8h.81v-.8h-.81Zm1.619 0v.8h.81v-.8h-.81ZM.81 4v.8h.809V4h-.81Zm1.619 0v.8h.81V4h-.81Zm1.619 0v.8h.81V4h-.81Zm1.619 0v.8h.81V4h-.81Zm-.81-.8V4h.81v-.8h-.81Zm-1.619 0V4h.81v-.8h-.81Zm-1.619 0V4h.81v-.8h-.81Z" fill="#fff"/></g><defs><clipPath id="a"><rect width="17" height="12" rx="1" fill="#fff"/></clipPath></defs></svg>