<svg width="21" height="15" fill="none" xmlns="http://www.w3.org/2000/svg"><rect width="21" height="15" rx="1" fill="#03BCDB"/><path d="M11.5 9a2.5 2.5 0 1 0 0-5 2.5 2.5 0 0 0 0 5Z" fill="#FFDA2C"/><path fill-rule="evenodd" clip-rule="evenodd" d="m8 7 1 2 2.5 1L14 9l1-2v3l-3.5 1L8 10V7ZM2 2.495C2 2.222 2.232 2 2.5 2c.276 0 .5.216.5.495v2.01A.503.503 0 0 1 2.5 5a.494.494 0 0 1-.5-.495v-2.01Zm1 2C3 4.222 3.232 4 3.5 4c.276 0 .5.216.5.495v2.01A.503.503 0 0 1 3.5 7a.494.494 0 0 1-.5-.495v-2.01Zm0 4C3 8.222 3.232 8 3.5 8c.276 0 .5.216.5.495v2.01a.503.503 0 0 1-.5.495.494.494 0 0 1-.5-.495v-2.01Zm-1 2c0-.273.232-.495.5-.495.276 0 .5.216.5.495v2.01a.503.503 0 0 1-.5.495.494.494 0 0 1-.5-.495v-2.01ZM2 6.5c0-.276.232-.5.5-.5.276 0 .5.232.5.5 0 .276-.232.5-.5.5a.505.505 0 0 1-.5-.5Zm1-4c0-.276.232-.5.5-.5.276 0 .5.232.5.5 0 .276-.232.5-.5.5a.505.505 0 0 1-.5-.5Zm-1 5c0-.276.232-.5.5-.5.276 0 .5.232.5.5 0 .276-.232.5-.5.5a.505.505 0 0 1-.5-.5Zm1 5c0-.276.232-.5.5-.5.276 0 .5.232.5.5 0 .276-.232.5-.5.5a.505.505 0 0 1-.5-.5Zm-1-4c0-.276.232-.5.5-.5.276 0 .5.232.5.5 0 .276-.232.5-.5.5a.505.505 0 0 1-.5-.5Z" fill="#FFDA2C"/></svg>