<svg width="24" height="24" fill="none" xmlns="http://www.w3.org/2000/svg"><path d="M5.875 9h8.438V7.286c0-.715-.274-1.322-.82-1.822-.548-.5-1.212-.75-1.993-.75-.781 0-1.445.25-1.992.75-.547.5-.82 1.107-.82 1.822H6.812c0-1.186.458-2.197 1.372-3.033C9.098 3.418 10.204 3 11.5 3c1.297 0 2.402.418 3.317 1.253.914.836 1.37 1.847 1.37 3.033V9h.938a1.9 1.9 0 0 1 1.325.503c.367.336.55.74.55 1.211v8.572c0 .471-.183.875-.55 1.21-.368.336-.81.504-1.325.504H5.875c-.516 0-.957-.168-1.324-.503-.367-.336-.551-.74-.551-1.211v-8.572c0-.471.184-.875.551-1.21A1.893 1.893 0 0 1 5.875 9Zm0 10.286h11.25v-8.572H5.875v8.572Zm5.625-2.572c.516 0 .957-.167 1.325-.503.367-.336.55-.74.55-1.211 0-.471-.183-.875-.55-1.211a1.896 1.896 0 0 0-1.325-.503 1.89 1.89 0 0 0-1.324.503c-.367.336-.551.74-.551 1.211 0 .471.184.875.551 1.211a1.89 1.89 0 0 0 1.324.503Zm-5.625 2.572v-8.572 8.572Z" fill="#4E5361"/></svg>