<svg width="24" height="24" fill="none" xmlns="http://www.w3.org/2000/svg"><path d="M14.766 3H9.244C4.2 3 3 4.177 3 9.117v5.417c0 4.949 1.19 6.126 6.234 6.126h5.522C19.8 20.66 21 19.492 21 14.543V9.126C21 4.177 19.81 3 14.766 3Zm2.765 12.601H16.22c-.497 0-.647-.396-1.538-1.27-.778-.735-1.106-.827-1.303-.827-.272 0-.347.074-.347.441v1.16c0 .312-.103.496-.937.496a5.192 5.192 0 0 1-2.291-.704 5.078 5.078 0 0 1-1.712-1.65A10.184 10.184 0 0 1 6.02 8.979c0-.194.075-.368.45-.368h1.31c.338 0 .46.147.59.487.638 1.84 1.726 3.44 2.166 3.44.17 0 .244-.073.244-.487v-1.895c-.056-.865-.525-.938-.525-1.251a.316.316 0 0 1 .108-.214.328.328 0 0 1 .23-.08h2.062c.281 0 .375.138.375.469v2.557c0 .276.122.368.207.368.168 0 .3-.092.609-.396a10.557 10.557 0 0 0 1.612-2.63.556.556 0 0 1 .223-.279.574.574 0 0 1 .35-.09h1.312c.393 0 .478.194.393.47a16.006 16.006 0 0 1-1.762 2.97c-.14.212-.197.323 0 .57.131.194.59.571.9.93.45.44.824.95 1.106 1.508.113.36-.075.543-.45.543Z" fill="#4E5361"/></svg>